<?xml version="1.0" encoding="utf-8"?>
<!-- Generator: Adobe Illustrator 25.2.0, SVG Export Plug-In . SVG Version: 6.00 Build 0)  -->
<svg version="1.1" id="Version_1" xmlns="http://www.w3.org/2000/svg" xmlns:xlink="http://www.w3.org/1999/xlink" x="0px" y="0px"
	 viewBox="0 0 441.2 70.8" style="enable-background:new 0 0 441.2 70.8;" xml:space="preserve">
<style type="text/css">
	.st0{fill:none;stroke:#FFFFFF;stroke-width:3;stroke-linejoin:round;}
	.st1{enable-background:new    ;}
	.st2{fill:#FFFFFF;}
	.st3{fill:none;stroke:#FFFFFF;stroke-width:6;stroke-linecap:round;stroke-miterlimit:10;}
</style>
<path class="st0" d="M63.8,23.2c0,0-5.4-0.9-7.2-5.4s-0.4-9.4,0.9-12.6c0.8,1.1,1.6,2.2,2.6,3.2c1.4,1.5,3,2.9,4.6,4.1
	c3.6,2.7,6.3,6.3,6.3,9"/>
<g>
	<g class="st1">
		<path class="st2" d="M8.8,53.4c-0.8,0-1.5-0.3-2-0.8c-0.5-0.5-0.8-1.2-0.8-2V9.4c0-0.8,0.3-1.5,0.8-2c0.5-0.5,1.2-0.8,2-0.8
			c0.9,0,1.6,0.3,2.2,1l27.1,35.9V9.4c0-0.8,0.3-1.5,0.8-2c0.5-0.5,1.2-0.8,2-0.8c0.8,0,1.5,0.3,2,0.8c0.5,0.5,0.8,1.2,0.8,2v41.2
			c0,0.8-0.3,1.5-0.8,2c-0.5,0.5-1.2,0.8-2,0.8c-0.4,0-0.8-0.1-1.2-0.2c-0.4-0.2-0.7-0.4-1-0.7L11.6,16.5v34.1c0,0.8-0.3,1.5-0.8,2
			C10.3,53.2,9.6,53.4,8.8,53.4z"/>
	</g>
	<g class="st1">
		<path class="st2" d="M68.8,53.7c-2.9,0-5.5-0.7-7.9-2.2c-2.3-1.5-4.2-3.4-5.5-5.9c-1.3-2.5-2-5.3-2-8.5c0-3.2,0.7-6,2.2-8.5
			c1.5-2.5,3.4-4.5,5.9-6c2.5-1.5,5.3-2.2,8.4-2.2c3.1,0,5.9,0.7,8.4,2.2c2.5,1.5,4.4,3.5,5.9,6c1.5,2.5,2.2,5.4,2.2,8.5h-2.3
			c0,3.2-0.7,6-2,8.5c-1.3,2.5-3.2,4.5-5.5,5.9C74.3,52.9,71.7,53.7,68.8,53.7z M70,48.3c2,0,3.9-0.5,5.5-1.5c1.6-1,2.9-2.3,3.8-4
			c0.9-1.7,1.4-3.6,1.4-5.7c0-2.2-0.5-4.1-1.4-5.8c-0.9-1.7-2.2-3-3.8-4c-1.6-1-3.4-1.5-5.5-1.5c-2,0-3.8,0.5-5.4,1.5
			c-1.6,1-2.9,2.3-3.8,4c-0.9,1.7-1.4,3.6-1.4,5.8c0,2.1,0.5,4,1.4,5.7c0.9,1.7,2.2,3,3.8,4C66.2,47.8,68,48.3,70,48.3z M83.4,53.5
			c-0.9,0-1.6-0.3-2.2-0.9c-0.6-0.6-0.9-1.3-0.9-2.2v-9.2l1.1-6.4l5,2.2v13.4c0,0.9-0.3,1.6-0.9,2.2C85,53.2,84.3,53.5,83.4,53.5z"
			/>
	</g>
	<g class="st1">
		<path class="st2" d="M93.9,26.6c-0.7,0-1.3-0.2-1.8-0.7c-0.5-0.4-0.7-1-0.7-1.7c0-0.7,0.2-1.3,0.7-1.7c0.5-0.4,1.1-0.7,1.8-0.7
			h14.5c0.7,0,1.3,0.2,1.8,0.7c0.5,0.4,0.7,1,0.7,1.7c0,0.7-0.2,1.2-0.7,1.7c-0.5,0.4-1.1,0.7-1.8,0.7H93.9z M107.9,53.4
			c-2,0-3.9-0.5-5.5-1.5c-1.6-1-2.9-2.4-3.8-4.1c-0.9-1.7-1.4-3.7-1.4-6V12.9c0-0.8,0.2-1.5,0.8-2c0.5-0.5,1.1-0.8,2-0.8
			c0.8,0,1.5,0.3,2,0.8c0.5,0.5,0.8,1.2,0.8,2v28.9c0,1.8,0.5,3.3,1.5,4.4c1,1.2,2.3,1.7,3.8,1.7h1.9c0.7,0,1.2,0.3,1.7,0.8
			c0.5,0.5,0.7,1.2,0.7,2c0,0.8-0.3,1.5-0.9,2c-0.6,0.5-1.3,0.8-2.2,0.8H107.9z"/>
		<path class="st2" d="M133.6,53.7c-2.8,0-5.3-0.6-7.5-1.8c-2.2-1.2-3.9-2.9-5.2-5.2c-1.3-2.3-1.9-5.1-1.9-8.3V23.3
			c0-0.8,0.3-1.4,0.8-2s1.2-0.8,2-0.8c0.8,0,1.5,0.3,2,0.8c0.5,0.5,0.8,1.2,0.8,2v15.1c0,2.3,0.4,4.2,1.3,5.8
			c0.9,1.5,2.1,2.7,3.6,3.4s3.2,1.1,5.1,1.1c1.8,0,3.5-0.4,4.9-1.1c1.4-0.7,2.6-1.7,3.4-2.9c0.9-1.2,1.3-2.6,1.3-4.1h3.6
			c-0.1,2.5-0.7,4.7-2,6.7c-1.2,2-2.9,3.6-5,4.7C138.6,53.2,136.3,53.7,133.6,53.7z M146.9,53.4c-0.8,0-1.5-0.3-2-0.8
			c-0.5-0.5-0.8-1.2-0.8-2V23.3c0-0.8,0.3-1.5,0.8-2c0.5-0.5,1.2-0.8,2-0.8c0.8,0,1.5,0.3,2,0.8c0.5,0.5,0.8,1.2,0.8,2v27.4
			c0,0.8-0.3,1.5-0.8,2C148.3,53.2,147.7,53.4,146.9,53.4z"/>
	</g>
	<g class="st1">
		<path class="st2" d="M163.1,53.4c-0.8,0-1.5-0.2-2-0.7c-0.5-0.5-0.7-1.1-0.7-2V23.3c0-0.8,0.2-1.5,0.7-2c0.5-0.5,1.1-0.7,2-0.7
			c0.9,0,1.6,0.2,2.1,0.7c0.5,0.5,0.7,1.1,0.7,2v27.4c0,0.8-0.2,1.5-0.7,2C164.7,53.2,164.1,53.4,163.1,53.4z M163,33
			c0.1-2.4,0.7-4.6,1.9-6.5c1.2-1.9,2.7-3.4,4.7-4.6c2-1.1,4.1-1.7,6.5-1.7c2.2,0,3.8,0.3,5,1c1.1,0.7,1.5,1.5,1.2,2.6
			c-0.1,0.6-0.4,1-0.7,1.3c-0.4,0.3-0.8,0.4-1.3,0.4c-0.5,0-1,0-1.6-0.1c-2.4-0.4-4.6-0.3-6.5,0.2c-1.9,0.5-3.4,1.4-4.6,2.7
			c-1.1,1.3-1.7,2.8-1.7,4.7H163z"/>
	</g>
	<g class="st1">
		<path class="st2" d="M201.8,53.7c-3.3,0-6.3-0.7-8.8-2.1c-2.5-1.4-4.5-3.4-6-5.9s-2.2-5.4-2.2-8.6c0-3.3,0.7-6.2,2-8.7
			c1.4-2.5,3.2-4.5,5.6-5.9s5.2-2.1,8.3-2.1c3.1,0,5.7,0.7,8,2.1c2.2,1.4,4,3.3,5.2,5.7c1.2,2.4,1.8,5.2,1.8,8.4
			c0,0.7-0.2,1.3-0.7,1.7c-0.5,0.5-1.1,0.7-1.8,0.7h-24.7v-4.4h24.7l-2.5,1.7c0-2.1-0.5-4-1.3-5.7c-0.8-1.7-1.9-3-3.4-4
			c-1.5-1-3.3-1.4-5.3-1.4c-2.3,0-4.3,0.5-5.9,1.6c-1.7,1-2.9,2.5-3.8,4.3c-0.9,1.8-1.3,3.8-1.3,6.1c0,2.3,0.5,4.3,1.5,6.1
			c1,1.8,2.4,3.2,4.2,4.2c1.8,1,3.8,1.6,6.2,1.6c1.3,0,2.6-0.2,4-0.7c1.4-0.5,2.5-1,3.3-1.7c0.6-0.4,1.2-0.7,1.8-0.7
			c0.6,0,1.2,0.2,1.7,0.6c0.6,0.6,0.9,1.2,1,1.8c0,0.7-0.2,1.2-0.8,1.7c-1.4,1.1-3.1,2-5.1,2.7C205.5,53.3,203.6,53.7,201.8,53.7z"
			/>
		<path class="st2" d="M251.2,54.1c-2.6,0-4.8-0.5-6.7-1.4c-1.9-0.9-3.4-2.3-4.4-4c-1.1-1.7-1.6-3.7-1.6-6.1c0-2.7,0.9-5.1,2.6-7.3
			c1.7-2.2,4.2-4.5,7.3-6.9l5-4c2-1.6,3.3-3,4-4.3c0.7-1.3,1.1-2.7,1.1-4.2c0-1.6-0.5-2.9-1.6-4.1c-1.1-1.2-2.6-1.7-4.5-1.7
			c-1.8,0-3.3,0.5-4.4,1.6c-1.1,1.1-1.7,2.3-1.7,3.8c0,1.1,0.2,2.2,0.7,3.2c0.5,1,1.2,2,2.3,3.1l27.2,27.1c0.6,0.6,0.9,1.2,1,1.7
			c0.1,0.5-0.2,1.1-0.7,1.7c-1.2,1.2-2.4,1.2-3.5,0l-27.5-27.5c-1.3-1.3-2.3-2.8-3.1-4.3c-0.7-1.5-1.1-3.2-1.1-4.9
			c0-1.9,0.5-3.6,1.4-5.1c0.9-1.5,2.2-2.7,3.9-3.6c1.6-0.9,3.5-1.3,5.5-1.3c2.1,0,4,0.5,5.6,1.4c1.6,0.9,2.9,2.2,3.9,3.7
			c1,1.6,1.4,3.3,1.4,5.3c0,1.6-0.3,3-0.9,4.3c-0.5,1.3-1.4,2.5-2.5,3.7c-1.1,1.2-2.5,2.5-4.2,3.8l-4.9,3.8
			c-1.5,1.2-2.8,2.4-3.8,3.6c-1.1,1.2-1.9,2.4-2.5,3.5c-0.6,1.2-0.9,2.4-0.9,3.7c0,2.2,0.7,4,2,5.2c1.3,1.2,3.2,1.8,5.6,1.8
			c2.3,0,4.3-0.5,6-1.6c1.7-1.1,3.5-2.6,5.4-4.5l8.9-9.4c0.6-0.6,1.1-0.9,1.6-1.1c0.5-0.1,1,0.1,1.6,0.6c0.6,0.5,0.9,1.1,0.9,1.7
			c0,0.6-0.2,1.2-0.8,1.8l-8.9,9.4c-2.1,2.3-4.3,4.2-6.7,5.6C256.9,53.4,254.2,54.1,251.2,54.1z"/>
	</g>
	<g class="st1">
		<path class="st2" d="M300.4,26.6c-0.8,0-1.4-0.2-1.8-0.7c-0.5-0.4-0.7-1-0.7-1.7c0-0.7,0.2-1.3,0.7-1.7c0.5-0.4,1.1-0.7,1.8-0.7
			h15.1c0.8,0,1.4,0.2,1.9,0.7c0.5,0.4,0.7,1,0.7,1.7c0,0.7-0.2,1.2-0.7,1.7c-0.5,0.4-1.1,0.7-1.9,0.7H300.4z M306.1,53.4
			c-0.7,0-1.3-0.2-1.8-0.8c-0.5-0.5-0.8-1.2-0.8-2V20.7c0-2.8,0.5-5.3,1.6-7.4s2.6-3.8,4.6-5c2-1.2,4.3-1.8,7-1.8
			c0.8,0,1.5,0.2,2,0.7c0.5,0.5,0.8,1.1,0.8,1.8c0,0.7-0.3,1.3-0.8,1.8c-0.5,0.5-1.2,0.8-2,0.8c-1.6,0-3,0.4-4.1,1.1
			c-1.1,0.7-2,1.7-2.6,3s-0.9,2.8-0.9,4.6v30.4c0,0.8-0.2,1.5-0.8,2C307.8,53.2,307,53.4,306.1,53.4z"/>
	</g>
	<g class="st1">
		<path class="st2" d="M338.1,53.7c-3.2,0-6-0.7-8.5-2.1s-4.5-3.4-5.9-5.9s-2.1-5.4-2.1-8.6c0-3.3,0.7-6.2,2.1-8.7s3.4-4.5,5.9-5.9
			s5.3-2.1,8.5-2.1s6,0.7,8.6,2.1c2.5,1.4,4.5,3.4,5.9,5.9c1.4,2.5,2.1,5.4,2.2,8.7c0,3.2-0.7,6.1-2.2,8.6c-1.4,2.5-3.4,4.5-5.9,5.9
			S341.3,53.7,338.1,53.7z M338.1,48.8c2.2,0,4.1-0.5,5.8-1.5s3-2.4,4-4.1c1-1.8,1.4-3.8,1.4-6.1c0-2.3-0.5-4.3-1.4-6.1
			c-1-1.8-2.3-3.2-4-4.2s-3.6-1.5-5.8-1.5c-2.2,0-4.1,0.5-5.8,1.5c-1.7,1-3,2.4-4,4.2c-1,1.8-1.4,3.8-1.4,6.1c0,2.3,0.5,4.3,1.4,6.1
			c1,1.8,2.3,3.1,4,4.1C334,48.2,335.9,48.8,338.1,48.8z"/>
		<path class="st2" d="M378.7,53.7c-3.2,0-6-0.7-8.5-2.1s-4.5-3.4-5.9-5.9s-2.1-5.4-2.1-8.6c0-3.3,0.7-6.2,2.1-8.7s3.4-4.5,5.9-5.9
			s5.3-2.1,8.5-2.1s6,0.7,8.6,2.1c2.5,1.4,4.5,3.4,5.9,5.9c1.4,2.5,2.1,5.4,2.2,8.7c0,3.2-0.7,6.1-2.2,8.6c-1.4,2.5-3.4,4.5-5.9,5.9
			S381.9,53.7,378.7,53.7z M378.7,48.8c2.2,0,4.1-0.5,5.8-1.5s3-2.4,4-4.1c1-1.8,1.4-3.8,1.4-6.1c0-2.3-0.5-4.3-1.4-6.1
			c-1-1.8-2.3-3.2-4-4.2s-3.6-1.5-5.8-1.5c-2.2,0-4.1,0.5-5.8,1.5c-1.7,1-3,2.4-4,4.2c-1,1.8-1.4,3.8-1.4,6.1c0,2.3,0.5,4.3,1.4,6.1
			c1,1.8,2.3,3.1,4,4.1C374.6,48.2,376.5,48.8,378.7,48.8z"/>
		<path class="st2" d="M419.2,53.7c-3.1,0-5.9-0.7-8.4-2.2c-2.5-1.5-4.5-3.5-5.9-6c-1.5-2.5-2.2-5.4-2.2-8.5c0-3.2,0.7-6,2-8.5
			c1.4-2.5,3.2-4.5,5.6-5.9c2.4-1.5,5-2.2,8-2.2c2.5,0,4.7,0.5,6.8,1.6c2.1,1,3.8,2.4,5.1,4.2V9.3c0-0.8,0.3-1.5,0.8-2
			c0.5-0.5,1.2-0.8,2-0.8c0.8,0,1.5,0.3,2,0.8c0.5,0.5,0.8,1.2,0.8,2v27.8c0,3.1-0.8,5.9-2.2,8.5c-1.5,2.5-3.4,4.5-5.9,5.9
			C425.1,52.9,422.3,53.7,419.2,53.7z M419.2,48.8c2.2,0,4.1-0.5,5.8-1.5c1.7-1,3-2.4,4-4.2c1-1.8,1.5-3.8,1.5-6
			c0-2.2-0.5-4.2-1.5-6c-1-1.8-2.3-3.1-4-4.2c-1.7-1-3.6-1.5-5.8-1.5c-2.1,0-4,0.5-5.7,1.5c-1.7,1-3.1,2.4-4.1,4.2
			c-1,1.8-1.5,3.8-1.5,6c0,2.2,0.5,4.3,1.5,6c1,1.8,2.3,3.2,4.1,4.2C415.2,48.2,417.1,48.8,419.2,48.8z"/>
	</g>
</g>
<line class="st3" x1="399.1" y1="9.8" x2="388.1" y2="23.9"/>
</svg>
