<?xml version="1.0" encoding="utf-8"?>
<!-- Generator: Adobe Illustrator 25.2.0, SVG Export Plug-In . SVG Version: 6.00 Build 0)  -->
<svg version="1.1" id="Version_1" xmlns="http://www.w3.org/2000/svg" xmlns:xlink="http://www.w3.org/1999/xlink" x="0px" y="0px"
	 viewBox="0 0 444.8 56.9" style="enable-background:new 0 0 444.8 56.9;" xml:space="preserve">
<style type="text/css">
	.st0{fill:none;stroke:#FFFFFF;stroke-width:3;stroke-linejoin:round;}
	.st1{fill:#FFFFFF;}
	.st2{font-family:'Comfortaa-SemiBold';}
	.st3{font-size:60px;}
	.st4{font-family:'Comfortaa-Bold';}
	.st5{letter-spacing:-2;}
	.st6{letter-spacing:-1;}
	.st7{fill:none;stroke:#FFFFFF;stroke-width:6;stroke-linecap:round;stroke-miterlimit:10;}
</style>
<path class="st0" d="M65.6,23.2c0,0-5.4-0.9-7.2-5.4S58,8.4,59.3,5.2c0.8,1.1,1.6,2.2,2.6,3.2c1.4,1.5,3,2.9,4.6,4.1
	c3.6,2.7,6.3,6.3,6.3,9"/>
<text transform="matrix(1 0 0 1 1.79 53.43)" class="st1 st2 st3">N</text>
<text transform="matrix(1 0 0 1 51.47 53.43)" class="st1 st4 st3">a</text>
<text transform="matrix(1 0 0 1 91.97 53.43)" class="st1 st2 st3">tu</text>
<text transform="matrix(1 0 0 1 156.83 53.43)" class="st1 st2 st3 st5">r</text>
<text transform="matrix(1 0 0 1 182.93 53.43)" class="st1 st2 st3">e &amp; </text>
<text transform="matrix(1 0 0 1 298.79 53.43)" class="st1 st2 st3 st6">f</text>
<text transform="matrix(1 0 0 1 319.61 53.43)" class="st1 st2 st3">ood</text>
<line class="st7" x1="400.9" y1="9.8" x2="389.9" y2="23.9"/>
<ellipse class="st1" cx="380.6" cy="37.1" rx="12.5" ry="13.2"/>
</svg>
