<?xml version="1.0" encoding="utf-8"?>
<!-- Generator: Adobe Illustrator 25.2.0, SVG Export Plug-In . SVG Version: 6.00 Build 0)  -->
<svg version="1.1" id="Version_1" xmlns="http://www.w3.org/2000/svg" xmlns:xlink="http://www.w3.org/1999/xlink" x="0px" y="0px"
	 viewBox="0 0 444.8 56.9" style="enable-background:new 0 0 444.8 56.9;" xml:space="preserve">
<style type="text/css">
	.st0{fill:none;stroke:#FFFFFF;stroke-width:3;stroke-linejoin:round;}
	.st1{enable-background:new    ;}
	.st2{fill:#FFFFFF;}
	.st3{fill:none;stroke:#FFFFFF;stroke-width:6;stroke-linecap:round;stroke-miterlimit:10;}
</style>
<path class="st0" d="M65.6,23.2c0,0-5.4-0.9-7.2-5.4S58,8.4,59.3,5.2c0.8,1.1,1.6,2.2,2.6,3.2c1.4,1.5,3,2.9,4.6,4.1
	c3.6,2.7,6.3,6.3,6.3,9"/>
<g class="st1">
	<path class="st2" d="M10.5,53.4c-0.8,0-1.5-0.3-2-0.8s-0.8-1.2-0.8-2V9.4c0-0.8,0.3-1.5,0.8-2s1.2-0.8,2-0.8c0.9,0,1.6,0.3,2.2,1
		l27.1,35.9V9.4c0-0.8,0.3-1.5,0.8-2s1.2-0.8,2-0.8s1.5,0.3,2,0.8s0.8,1.2,0.8,2v41.2c0,0.8-0.3,1.5-0.8,2s-1.2,0.8-2,0.8
		c-0.4,0-0.8-0.1-1.2-0.2c-0.4-0.2-0.7-0.4-1-0.7l-27-36v34.1c0,0.8-0.3,1.5-0.8,2C12.1,53.2,11.4,53.4,10.5,53.4z"/>
</g>
<g class="st1">
	<path class="st2" d="M70.6,53.7c-2.9,0-5.5-0.7-7.9-2.2c-2.3-1.5-4.2-3.4-5.5-5.9s-2-5.3-2-8.5s0.7-6,2.2-8.5s3.4-4.5,5.9-6
		c2.5-1.5,5.3-2.2,8.4-2.2s5.9,0.7,8.4,2.2s4.4,3.5,5.9,6s2.2,5.4,2.2,8.5h-2.3c0,3.2-0.7,6-2,8.5s-3.2,4.5-5.5,5.9
		C76.1,52.9,73.5,53.7,70.6,53.7z M71.8,48.3c2,0,3.9-0.5,5.5-1.5s2.9-2.3,3.8-4s1.4-3.6,1.4-5.7c0-2.2-0.5-4.1-1.4-5.8
		s-2.2-3-3.8-4c-1.6-1-3.4-1.5-5.5-1.5c-2,0-3.8,0.5-5.4,1.5s-2.9,2.3-3.8,4c-0.9,1.7-1.4,3.6-1.4,5.8c0,2.1,0.5,4,1.4,5.7
		s2.2,3,3.8,4C67.9,47.8,69.7,48.3,71.8,48.3z M85.2,53.5c-0.9,0-1.6-0.3-2.2-0.9c-0.6-0.6-0.9-1.3-0.9-2.2v-9.2l1.1-6.4l5,2.2v13.4
		c0,0.9-0.3,1.6-0.9,2.2C86.8,53.2,86.1,53.5,85.2,53.5z"/>
</g>
<g class="st1">
	<path class="st2" d="M95.7,26.6c-0.7,0-1.3-0.2-1.8-0.7c-0.5-0.4-0.7-1-0.7-1.7s0.2-1.3,0.7-1.7c0.5-0.4,1.1-0.7,1.8-0.7h14.5
		c0.7,0,1.3,0.2,1.8,0.7c0.5,0.4,0.7,1,0.7,1.7s-0.2,1.2-0.7,1.7c-0.5,0.4-1.1,0.7-1.8,0.7H95.7z M109.7,53.4c-2,0-3.9-0.5-5.5-1.5
		s-2.9-2.4-3.8-4.1s-1.4-3.7-1.4-6V12.9c0-0.8,0.2-1.5,0.8-2c0.5-0.5,1.1-0.8,2-0.8c0.8,0,1.5,0.3,2,0.8s0.8,1.2,0.8,2v28.9
		c0,1.8,0.5,3.3,1.5,4.4c1,1.2,2.3,1.7,3.8,1.7h1.9c0.7,0,1.2,0.3,1.7,0.8s0.7,1.2,0.7,2s-0.3,1.5-0.9,2s-1.3,0.8-2.2,0.8
		L109.7,53.4L109.7,53.4z"/>
	<path class="st2" d="M135.4,53.7c-2.8,0-5.3-0.6-7.5-1.8s-3.9-2.9-5.2-5.2c-1.3-2.3-1.9-5.1-1.9-8.3V23.3c0-0.8,0.3-1.4,0.8-2
		s1.2-0.8,2-0.8s1.5,0.3,2,0.8s0.8,1.2,0.8,2v15.1c0,2.3,0.4,4.2,1.3,5.8c0.9,1.5,2.1,2.7,3.6,3.4s3.2,1.1,5.1,1.1
		c1.8,0,3.5-0.4,4.9-1.1c1.4-0.7,2.6-1.7,3.4-2.9c0.9-1.2,1.3-2.6,1.3-4.1h3.6c-0.1,2.5-0.7,4.7-2,6.7c-1.2,2-2.9,3.6-5,4.7
		C140.4,53.2,138,53.7,135.4,53.7z M148.7,53.4c-0.8,0-1.5-0.3-2-0.8s-0.8-1.2-0.8-2V23.3c0-0.8,0.3-1.5,0.8-2s1.2-0.8,2-0.8
		s1.5,0.3,2,0.8s0.8,1.2,0.8,2v27.4c0,0.8-0.3,1.5-0.8,2C150.1,53.2,149.5,53.4,148.7,53.4z"/>
</g>
<g class="st1">
	<path class="st2" d="M164.9,53.4c-0.8,0-1.5-0.2-2-0.7s-0.7-1.1-0.7-2V23.3c0-0.8,0.2-1.5,0.7-2s1.1-0.7,2-0.7s1.6,0.2,2.1,0.7
		s0.7,1.1,0.7,2v27.4c0,0.8-0.2,1.5-0.7,2C166.5,53.2,165.8,53.4,164.9,53.4z M164.8,33c0.1-2.4,0.7-4.6,1.9-6.5s2.7-3.4,4.7-4.6
		c2-1.1,4.1-1.7,6.5-1.7c2.2,0,3.8,0.3,5,1c1.1,0.7,1.5,1.5,1.2,2.6c-0.1,0.6-0.4,1-0.7,1.3c-0.4,0.3-0.8,0.4-1.3,0.4s-1,0-1.6-0.1
		c-2.4-0.4-4.6-0.3-6.5,0.2s-3.4,1.4-4.6,2.7c-1.1,1.3-1.7,2.8-1.7,4.7H164.8z"/>
</g>
<g class="st1">
	<path class="st2" d="M203.6,53.7c-3.3,0-6.3-0.7-8.8-2.1c-2.5-1.4-4.5-3.4-6-5.9s-2.2-5.4-2.2-8.6c0-3.3,0.7-6.2,2-8.7
		c1.4-2.5,3.2-4.5,5.6-5.9s5.2-2.1,8.3-2.1s5.7,0.7,8,2.1c2.2,1.4,4,3.3,5.2,5.7s1.8,5.2,1.8,8.4c0,0.7-0.2,1.3-0.7,1.7
		c-0.5,0.5-1.1,0.7-1.8,0.7h-24.7v-4.4H215l-2.5,1.7c0-2.1-0.5-4-1.3-5.7s-1.9-3-3.4-4s-3.3-1.4-5.3-1.4c-2.3,0-4.3,0.5-5.9,1.6
		c-1.7,1-2.9,2.5-3.8,4.3c-0.9,1.8-1.3,3.8-1.3,6.1s0.5,4.3,1.5,6.1s2.4,3.2,4.2,4.2s3.8,1.6,6.2,1.6c1.3,0,2.6-0.2,4-0.7
		s2.5-1,3.3-1.7c0.6-0.4,1.2-0.7,1.8-0.7s1.2,0.2,1.7,0.6c0.6,0.6,0.9,1.2,1,1.8c0,0.7-0.2,1.2-0.8,1.7c-1.4,1.1-3.1,2-5.1,2.7
		C207.3,53.3,205.4,53.7,203.6,53.7z"/>
	<path class="st2" d="M253,54.1c-2.6,0-4.8-0.5-6.7-1.4s-3.4-2.3-4.4-4c-1.1-1.7-1.6-3.7-1.6-6.1c0-2.7,0.9-5.1,2.6-7.3
		c1.7-2.2,4.2-4.5,7.3-6.9l5-4c2-1.6,3.3-3,4-4.3c0.7-1.3,1.1-2.7,1.1-4.2c0-1.6-0.5-2.9-1.6-4.1s-2.6-1.7-4.5-1.7
		c-1.8,0-3.3,0.5-4.4,1.6c-1.1,1.1-1.7,2.3-1.7,3.8c0,1.1,0.2,2.2,0.7,3.2s1.2,2,2.3,3.1l27.2,27.1c0.6,0.6,0.9,1.2,1,1.7
		s-0.2,1.1-0.7,1.7c-1.2,1.2-2.4,1.2-3.5,0l-27.5-27.5c-1.3-1.3-2.3-2.8-3.1-4.3c-0.7-1.5-1.1-3.2-1.1-4.9c0-1.9,0.5-3.6,1.4-5.1
		s2.2-2.7,3.9-3.6c1.6-0.9,3.5-1.3,5.5-1.3c2.1,0,4,0.5,5.6,1.4s2.9,2.2,3.9,3.7c1,1.6,1.4,3.3,1.4,5.3c0,1.6-0.3,3-0.9,4.3
		c-0.5,1.3-1.4,2.5-2.5,3.7s-2.5,2.5-4.2,3.8l-4.9,3.8c-1.5,1.2-2.8,2.4-3.8,3.6c-1.1,1.2-1.9,2.4-2.5,3.5c-0.6,1.2-0.9,2.4-0.9,3.7
		c0,2.2,0.7,4,2,5.2s3.2,1.8,5.6,1.8c2.3,0,4.3-0.5,6-1.6s3.5-2.6,5.4-4.5l8.9-9.4c0.6-0.6,1.1-0.9,1.6-1.1c0.5-0.1,1,0.1,1.6,0.6
		s0.9,1.1,0.9,1.7c0,0.6-0.2,1.2-0.8,1.8l-8.9,9.4c-2.1,2.3-4.3,4.2-6.7,5.6C258.7,53.4,256,54.1,253,54.1z"/>
</g>
<g class="st1">
	<path class="st2" d="M302.2,26.6c-0.8,0-1.4-0.2-1.8-0.7c-0.5-0.4-0.7-1-0.7-1.7s0.2-1.3,0.7-1.7c0.5-0.4,1.1-0.7,1.8-0.7h15.1
		c0.8,0,1.4,0.2,1.9,0.7c0.5,0.4,0.7,1,0.7,1.7s-0.2,1.2-0.7,1.7c-0.5,0.4-1.1,0.7-1.9,0.7H302.2z M307.9,53.4
		c-0.7,0-1.3-0.2-1.8-0.8c-0.5-0.5-0.8-1.2-0.8-2V20.7c0-2.8,0.5-5.3,1.6-7.4s2.6-3.8,4.6-5s4.3-1.8,7-1.8c0.8,0,1.5,0.2,2,0.7
		s0.8,1.1,0.8,1.8s-0.3,1.3-0.8,1.8s-1.2,0.8-2,0.8c-1.6,0-3,0.4-4.1,1.1c-1.1,0.7-2,1.7-2.6,3s-0.9,2.8-0.9,4.6v30.4
		c0,0.8-0.3,1.5-0.8,2C309.5,53.2,308.8,53.4,307.9,53.4z"/>
</g>
<g class="st1">
	<path class="st2" d="M339.9,53.7c-3.2,0-6-0.7-8.5-2.1s-4.5-3.4-5.9-5.9s-2.1-5.4-2.1-8.6c0-3.3,0.7-6.2,2.1-8.7s3.4-4.5,5.9-5.9
		s5.3-2.1,8.5-2.1s6,0.7,8.6,2.1c2.5,1.4,4.5,3.4,5.9,5.9s2.1,5.4,2.2,8.7c0,3.2-0.7,6.1-2.2,8.6c-1.4,2.5-3.4,4.5-5.9,5.9
		S343.1,53.7,339.9,53.7z M339.9,48.8c2.2,0,4.1-0.5,5.8-1.5s3-2.4,4-4.1c1-1.8,1.4-3.8,1.4-6.1s-0.5-4.3-1.4-6.1
		c-1-1.8-2.3-3.2-4-4.2s-3.6-1.5-5.8-1.5c-2.2,0-4.1,0.5-5.8,1.5c-1.7,1-3,2.4-4,4.2c-1,1.8-1.4,3.8-1.4,6.1s0.5,4.3,1.4,6.1
		c1,1.8,2.3,3.1,4,4.1C335.8,48.2,337.7,48.8,339.9,48.8z"/>
	<path class="st2" d="M380.4,53.7c-3.2,0-6-0.7-8.5-2.1c-2.5-1.4-4.5-3.4-5.9-5.9s-2.1-5.4-2.1-8.6c0-3.3,0.7-6.2,2.1-8.7
		s3.4-4.5,5.9-5.9s5.3-2.1,8.5-2.1s6,0.7,8.6,2.1c2.5,1.4,4.5,3.4,5.9,5.9s2.1,5.4,2.2,8.7c0,3.2-0.7,6.1-2.2,8.6
		c-1.4,2.5-3.4,4.5-5.9,5.9S383.7,53.7,380.4,53.7z"/>
	<path class="st2" d="M421,53.7c-3.1,0-5.9-0.7-8.4-2.2s-4.5-3.5-5.9-6c-1.5-2.5-2.2-5.4-2.2-8.5c0-3.2,0.7-6,2-8.5
		c1.4-2.5,3.2-4.5,5.6-5.9c2.4-1.5,5-2.2,8-2.2c2.5,0,4.7,0.5,6.8,1.6c2.1,1,3.8,2.4,5.1,4.2V9.3c0-0.8,0.3-1.5,0.8-2s1.2-0.8,2-0.8
		s1.5,0.3,2,0.8s0.8,1.2,0.8,2v27.8c0,3.1-0.8,5.9-2.2,8.5c-1.5,2.5-3.4,4.5-5.9,5.9C426.9,52.9,424.1,53.7,421,53.7z M421,48.8
		c2.2,0,4.1-0.5,5.8-1.5c1.7-1,3-2.4,4-4.2s1.5-3.8,1.5-6s-0.5-4.2-1.5-6s-2.3-3.1-4-4.2c-1.7-1-3.6-1.5-5.8-1.5
		c-2.1,0-4,0.5-5.7,1.5s-3.1,2.4-4.1,4.2c-1,1.8-1.5,3.8-1.5,6s0.5,4.3,1.5,6c1,1.8,2.3,3.2,4.1,4.2C417,48.2,418.9,48.8,421,48.8z"
		/>
</g>
<line class="st3" x1="400.9" y1="9.8" x2="389.9" y2="23.9"/>
</svg>
