<?xml version="1.0" encoding="utf-8"?>
<!-- Generator: Adobe Illustrator 25.2.0, SVG Export Plug-In . SVG Version: 6.00 Build 0)  -->
<svg version="1.1" id="Version_1" xmlns="http://www.w3.org/2000/svg" xmlns:xlink="http://www.w3.org/1999/xlink" x="0px" y="0px"
	 viewBox="0 0 33.9 51" style="enable-background:new 0 0 33.9 51;" xml:space="preserve">
<style type="text/css">
	.st0{fill:#2FD426;stroke:#2FD426;stroke-width:4;stroke-linejoin:round;}
	.st1{enable-background:new    ;}
	.st2{fill:#D4262F;}
</style>
<path class="st0" d="M11.3,20.3c0,0-5.4-0.9-7.2-5.4S3.6,5.4,4.9,2.2c0.8,1.1,1.6,2.2,2.6,3.2c1.4,1.5,3,2.9,4.6,4.1
	c3.6,2.7,6.3,6.3,6.3,9"/>
<g class="st1">
	<path class="st2" d="M16,50.7c-3,0-5.7-0.7-8-2.2c-2.4-1.4-4.2-3.4-5.6-5.9s-2-5.4-2-8.5c0-3.2,0.7-6,2.2-8.5C4,23,6,21.1,8.5,19.6
		s5.3-2.2,8.4-2.2c3.2,0,6,0.7,8.5,2.2s4.4,3.5,5.9,6s2.2,5.4,2.2,8.5l-2.2,0.5c0,3-0.7,5.8-2,8.2c-1.4,2.4-3.2,4.4-5.5,5.8
		C21.5,50,18.9,50.7,16,50.7z M16.9,45.8c2.2,0,4.1-0.5,5.8-1.5s3-2.4,4-4.2s1.5-3.8,1.5-6s-0.5-4.2-1.5-6s-2.3-3.2-4-4.2
		s-3.6-1.5-5.8-1.5c-2.1,0-4,0.5-5.7,1.5s-3.1,2.4-4.1,4.2c-1,1.8-1.5,3.8-1.5,6s0.5,4.2,1.5,6s2.3,3.2,4.1,4.2
		C12.9,45.3,14.8,45.8,16.9,45.8z M30.7,50.5c-0.8,0-1.5-0.3-2-0.8s-0.8-1.2-0.8-2v-9.6l1.1-5.8l4.4,1.7v13.7c0,0.8-0.3,1.5-0.8,2
		C32.2,50.3,31.5,50.5,30.7,50.5z"/>
</g>
</svg>
